<?xml version="1.0" encoding="utf-8"?>
<!-- Generator: Adobe Illustrator 25.0.0, SVG Export Plug-In . SVG Version: 6.00 Build 0)  -->
<svg version="1.1" id="图层_1" xmlns="http://www.w3.org/2000/svg" xmlns:xlink="http://www.w3.org/1999/xlink" x="0px" y="0px"
	 viewBox="0 0 1769.2 729.6" style="enable-background:new 0 0 1769.2 729.6;" xml:space="preserve">
<style type="text/css">
	.st0{fill:#CCCCCC;stroke:#CCCCCC;stroke-miterlimit:10;}
	.st1{fill:#FFFFFF;stroke:#000000;stroke-miterlimit:10;}
	.st2{fill:#FFFFFF;stroke:#000000;stroke-width:3;stroke-miterlimit:10;}
	.st3{stroke:#000000;stroke-width:3;stroke-miterlimit:10;}
	.st4{stroke:#000000;stroke-miterlimit:10;}
	.st5{fill:none;stroke:#000000;stroke-width:3;stroke-miterlimit:10;}
	.st6{fill:none;stroke:#000000;stroke-width:3.0463;stroke-miterlimit:10;}
	.st7{fill:none;stroke:#000000;stroke-width:4.0924;stroke-miterlimit:10;}
	.st8{fill:none;stroke:#000000;stroke-width:3.9168;stroke-miterlimit:10;}
	.st9{fill:none;stroke:#000000;stroke-width:5;stroke-miterlimit:10;}
	.st10{font-family:'ArialMT';}
	.st11{font-size:48px;}
	.st12{fill:none;stroke:#000000;stroke-width:3.4141;stroke-miterlimit:10;}
	.st13{fill:none;stroke:#000000;stroke-width:2.7313;stroke-miterlimit:10;}
	.st14{fill:none;stroke:#000000;stroke-width:2.185;stroke-miterlimit:10;}
	.st15{fill:none;stroke:#000000;stroke-width:1.3656;stroke-miterlimit:10;}
	.st16{fill:none;stroke:#000000;stroke-width:0.6828;stroke-miterlimit:10;}
</style>
<g id="图层_14">
	<path class="st0" d="M188.5,380c-23-20-93-59-99-69v1.5c0,0-20-28.5-52-20.5l-2,4c-2,1-5-4-7-4c-2,1-2,2-4,3s-40-15-11-33
		s125-15.5,175-35.2c99.7-19.4,182.3-47.2,251-59.8c92-17,271-16,324-20c23-2,27.6-17,43.8-44.5C835.5,57,868.5-6,905.5,8
		c10.8,5,45,45,59,55c11,13,74.2,68.7,76,71c3,4-46,22-55,44c93,13,293,64,307,66c27,4,74-55,111,5c-15,14-72,5-73,14
		c9,9,115,29,134,23c3.5-1.1,49.6-31.5,106-62c93-62,175-89,198-81c-103,232-7,425-21,436c-39,16-148-60-288-149c-24-15-91-8-123,3
		c-3,9,37,31,51,41c4.2,5.8-67,126-157,160c-38,10-92-134-108-127c0,0-16,16-94,22c-8,5,12,24,5,87c0,0-3,6-22-9c0-28,0-72-1-76
		s-61-21-62-20s-2,3-1,4s54,14,55,18s4,62-3,90c-15,25-8,9-37,72c-47-16-76-143-71-149c0,0-436,17-601-62c-17-8-247-57-290-132v-5.5
		c0,0,12-1.5,30-12.5l4,5l8-2c0,0,5,8,4,11s10.4,2.5,10.4,2.5s2.6,12.5,7.6,12.5c6,1,9,2,10,1c10,11,63,27,112,19
		C186.5,383,191.5,382,188.5,380z"/>
</g>
<g id="白鳍">
	<path class="st1" d="M493.4,430c-1,1-4,6,3,4s51-24,88-28c40-3,139-4,149,26c-1,13-27.4,25.1-55,43c-30.1,19.5-61,45-86,45
		s-56-28-66-30s-2,4-1,5s46,29,60,30s28-3,45-12s18-12,45-29c33-20.3,65-41,65-50c0-1,0.8-10.2-15-19c-14.7-8.2-43.5-16-108-17
		c0,0-71.6,0-120.6,29.9C495.6,428.4,494.4,429.2,493.4,430z"/>
</g>
<g id="图层_4_复制">
	<ellipse class="st2" cx="213" cy="278" rx="48.5" ry="36"/>
	<circle class="st3" cx="213" cy="277.5" r="18.5"/>
</g>
<path class="st2" d="M313.5,244.5c0,0,0.5-17.3,21.1-15.6c14.3,2.2,13.8,15.6,10.4,20.6C339.6,253.4,313.5,244.5,313.5,244.5z"/>
<g>
	<path class="st2" d="M536.9,287.9c3-6-4-9-4-9c4.6-1.5,8.8-4.3,12-8c5-6,64-73,67-73s-4,11-4,11s-44,55-44,56s-1,12,1,16s-6,4-9,12
		s-3,8-3,18c-3,1-5,1-7,3c0,0,2,32,1,33c-4,2-15.3-33.5-14-37.8C533.9,293.9,533.9,293.9,536.9,287.9z"/>
	<g>
		<path class="st2" d="M566.9,275.9l9.5-5.6c0,0,56.5-70.4,58.5-71.4s3,1-2,9s-37.5,56.8-37.8,62.4s-0.2,18.6,1.3,19.6
			s-12.9-2-13.2,0s-3.3,14-1.3,20c-3,3-6.2,4.1-5,6c-1,7,0,34,2,36c-3,3-14-39-20-40c3-13,6.2-17,7.6-22S566.9,275.9,566.9,275.9z"
			/>
		<g id="图层_7">
			<path class="st4" d="M557.9,283.9l-6,6l-9.9-3c0,0,15.2-17.9,23.9-35c4.3-8.5-15.6,30.5-14,28L557.9,283.9z"/>
			<polygon class="st5" points="541.9,298.9 544.2,297.4 546.1,298.9 544,298.6 			"/>
		</g>
		<g id="图层_7_复制">
			<path class="st4" d="M585.9,287.9l-6,6l-9.9-3c0,0,15.2-17.9,23.9-35c4.3-8.5-15.6,30.5-14,28L585.9,287.9z"/>
			<polygon class="st5" points="569.9,300.9 572.2,299.4 574.1,300.9 572,300.6 			"/>
		</g>
	</g>
</g>
<g id="图层_10">
	<path class="st6" d="M293.4,641c0,0,27.3,12.6,29.1-12.1c1.1-15.5-14.7-20.6-31.9-8.5l-3.7-28.9c0,0,44-2.7,58.2-20.1
		c9-4,10,5.2,10,5.2s63,6.7,59.6,47.9c1.5,52.6-20.4,50.3-56.5,55.2c-8.7,2-4.8,15.6-10.2,17.4c-6,2-19.2,0.9-22.6-0.2
		s-3.3-18.6-12.2-25.9c-4.9-7.3-20-5.3-20-5.3L293.4,641z"/>
	<path class="st6" d="M346.5,629.1c0,3.1,2.9,11.4,13.9,11.5s9.4-8.2,9.8-11.3c0.1-6.3-4.8-11.5-10.9-11.6c-0.5,0-1.1,0-1.6,0.1
		C347.6,618.8,346.6,626,346.5,629.1z"/>
	<path class="st6" d="M338.5,630c0,2.1,0.8,22.7,21.8,21.8c21-0.8,22.2-21.5,22.2-22.5s1.2-23.7-24.8-22.9
		C336.7,609.4,338.6,628,338.5,630z"/>
	<path class="st6" d="M327.5,629.9c0-3.1-1.3,34,27.7,35.3s41.5-13,40-34.7s-1.4-35.1-35.3-38.5C324.9,591.8,327.5,633,327.5,629.9z
		"/>
</g>
<g id="图层_10_复制">
	<path class="st7" d="M503.7,122.5c17,10.2,98.9,7.1,89.1-17.8c-8.9-22.5,10.2-24.5-15.3-57.6s-175.3,5.8-122.2,50.8
		C484.1,122.3,486.7,112.3,503.7,122.5z"/>
	<path class="st7" d="M519.9,81c0.2,5.4,10.6,13.2,24.7,9.7c14.1-3.5,22.1-11.5,19.4-16.8c-2.6-5.3-0.9-12.1-22.9-11.5
		C519.9,63.1,519.8,76.2,519.9,81z"/>
	<path class="st7" d="M499.1,81.4c0.5,5,8.4,27,38.5,26.1c30-0.9,38.8-21.2,38.8-28.2s-5.8-32.4-38.7-29.4
		C504.9,52.9,498.6,76.4,499.1,81.4z"/>
	<path class="st7" d="M467.8,73.1c-7.1,21.2,42.3,45.8,71.5,44.1c29.2-1.8,48.6-20.3,45-42.3c0.4-8.4-11.5-35.3-44.1-33.5
		C507.6,43.2,474.9,51.9,467.8,73.1z"/>
</g>
<g id="图层_18">
	<path class="st8" d="M1156,107.7c3.4-2,18.6-7.3,37.6-17.9s51.3,44,22.8,52.8s-51.3,5.3-60.7,1.8
		C1146.1,140.8,1152.6,109.7,1156,107.7z"/>
	<path class="st8" d="M1191.6,91.6c-1.9-6.2-1.9-12.7,0-18.8c1.9-5.7,47.5-23.3,53.2-21.5s38,22.9,15.2,52.8
		c-11.7,4.3-24.3,6.3-36.8,5.9"/>
	<path class="st8" d="M1196.9,146.7c0,0-1.4,11.7,10,13.5s51.3,5.3,64.5,0c13.3-5.3,3.8-49.2-11.4-56.3"/>
	<path class="st8" d="M1161.3,112.7c-3.8,3.5-5.7,8.8-1.9,21.1c3.8,12.3,55.1,3.5,57,1.8s-1.9-38.7-15.2-38.7
		C1187.9,96.8,1165.1,109.2,1161.3,112.7z"/>
	<path class="st8" d="M1167.1,118c-2,5.2-2,7,0,10.6c3.7,5.2,32.2,5.2,36,3.4s3.8-26.4-1.9-26.4C1195.5,105.6,1169,112.8,1167.1,118
		z"/>
	<path class="st8" d="M1175.2,120.2c-0.7,1.3,0.6,2.2,1.2,3c1.2,2.7,15.2,1.8,17.1,0s-2.1-6.5-3.9-7.6
		C1187.8,114.4,1175.9,118.9,1175.2,120.2z"/>
	<path class="st8" d="M1198.7,88.5c0.5-2.2-3.3-11,0.5-14.5s36.1-21.1,43.7-17.6s22.8,33.4,9.5,42.2s-31.3,5.3-31.3,5.3
		s-4.1-4.3-8-8.2c-3.5-3.5-7-6.8-7.3-6.5c-0.7,0.6-0.7-8.2,1.2-11.7c3.8-7,28.5-12.3,32.3-10.6c3.8,1.8,11.4,19.3,5.7,24.6
		c-5.7,5.3-32.3,3.5-32.3,3.5"/>
	<path class="st8" d="M1212.9,80.4c-2.2,4.1-1.5,6.7,0,8s18.6,1.4,22.4-2.2s1.9-10.6-1.9-12.3S1215.1,76.3,1212.9,80.4z"/>
	<path class="st8" d="M1225.9,116.7c0,0,23-6.5,32.3,0s20.7,32.9,5.5,36.4c-15.2,3.6-45.6,5.3-52.3,0c-2.8-3.5-1.8-8.7-1.8-8.7"/>
	<path class="st8" d="M1227.6,124.1c0.1,0.9,17.2-7.9,24.8-2.7c7.6,5.3,13.3,21.1,3.8,24.6s-24.7,5.3-30.4,3.5
		c-5.7-1.8-6.8-8.1-6.8-8.1"/>
	<path class="st8" d="M1230.4,129.2c5.5-3.1,12-4,18.2-2.5c7.6,3.5,3.8,14.1,0,15.8c-7.6,2.3-17.6,1.6-20.9,0
		S1225.5,131.7,1230.4,129.2z"/>
</g>
<g>
	<g id="图层_23_复制">
		<path class="st5" d="M766.7,252.7c0,0,15.2,3.2,18.8,8.1c1.2,1.6,1.1,3.4-1.2,5.4c-9.5,7.7-15,6-15,6s32.3,11.1,10.6,18.8"/>
		<path class="st1" d="M788.3,260.4"/>
		<path class="st5" d="M786.3,287.1c37.8-13-1.8-26.1-0.4-25.6"/>
	</g>
	<g id="图层_23_复制_2">
		<path class="st5" d="M765.3,286c0,0,13.2,2,16.9,6.9c1.2,1.6,1.1,3.4-1.2,5.4c-9.5,7.7-13,8.5-13,8.5s27.9,10.8,6.2,18.5"/>
		<path class="st1" d="M785,292.4"/>
		<path class="st5" d="M781.9,291c-5.3-2.5,37.3,15.4,0,28.2"/>
		<path class="st5" d="M801.1,279.1c0,0,33.2,16.3-4,30.1"/>
	</g>
</g>
<line class="st9" x1="350.9" y1="225.4" x2="469.9" y2="140.2"/>
<line class="st9" x1="371.5" y1="541.7" x2="530" y2="361.8"/>
<line class="st9" x1="861.1" y1="279.1" x2="1150.7" y2="162.7"/>
<line class="st9" x1="138.4" y1="183.9" x2="179.4" y2="240.2"/>
<text transform="matrix(1 0 0 1 613.8909 133.3434)" class="st10 st11">Otolith</text>
<text transform="matrix(1 0 0 1 174.9556 167.1988)" class="st10 st11">Eye lense</text>
<text transform="matrix(1.125 0 0 1 433.8062 698.0003)" class="st10 st11">Vertebra</text>
<text transform="matrix(1 0 0 1 1302.1904 165.4676)" class="st10 st11">Scale</text>
<g>
	<ellipse class="st12" cx="94.3" cy="115.4" rx="68.1" ry="68.5"/>
	<ellipse class="st13" cx="94.3" cy="115.4" rx="54.5" ry="54.8"/>
	<ellipse class="st14" cx="94.3" cy="115.5" rx="43.6" ry="43.8"/>
	<ellipse class="st15" cx="94.3" cy="115.4" rx="27.2" ry="27.4"/>
	<ellipse class="st16" cx="94.3" cy="115.4" rx="13.6" ry="13.7"/>
</g>
</svg>
